<?xml version="1.0" encoding="utf-8"?>
<!-- Generator: Adobe Illustrator 25.0.1, SVG Export Plug-In . SVG Version: 6.00 Build 0)  -->
<svg version="1.1" id="Layer_1" xmlns="http://www.w3.org/2000/svg" xmlns:xlink="http://www.w3.org/1999/xlink" x="0px" y="0px"
	 viewBox="0 0 400 50" style="enable-background:new 0 0 400 50;" xml:space="preserve">
<style type="text/css">
	.st0{fill:#FFFFFF;}
</style>
<path class="st0" d="M37.5,30.5H10.9v-6.6h34.3c-0.9-2.8-3.8-5.4-8.9-5.4H11.4c-5.7,0-9,2.1-9,6.7v4.9c0,4,3.4,6.3,8.4,6.3h26.9v7
	H1.5c0.9,3.8,3.8,5.8,9,5.8h27.1c5.7,0,8.5-2.2,8.5-6.9v-4.9C46.1,33.1,42.8,30.8,37.5,30.5z M91.8,18.6H59v30.7h9.3V37.5h24.2
	c6.7,0,10.4-2.3,10.4-7.7v-3.4C102.8,21.4,98.6,18.6,91.8,18.6z M94.8,28.4c0,2.2-0.4,3.4-4,3.4H68.3l0.1-8h22c4,0,4.5,1.2,4.5,3.3
	L94.8,28.4L94.8,28.4z M129.9,17.3l-5.6,6.9l9.5,13.1H114l-4.9,5.2h28.6l4.9,6.8h11L129.9,17.3z M171.4,23.9h34.8
	c-0.9-3.6-4.4-5.4-9.4-5.4h-26c-4.5,0-8.8,1.8-8.8,6.7v17.2c0,4.9,4.3,6.7,8.8,6.7h26.3c6,0,8.1-1.7,9.1-5.8h-34.8L171.4,23.9
	L171.4,23.9z M228.3,43.5v-9.4H247v-5.2h-28.1v20.4h41.5v-5.8H228.3z M219.9,18.6h41.9V24h-41.9V18.6z M287.6,18.6H273l17.2,12.6
	c2.5-1.7,5.4-3.5,8-5L287.6,18.6z M308.8,34.3c-2.5,1.7-5,3.6-7.4,5.4l13,9.5h14.7L308.8,34.3L308.8,34.3z M399,0.7
	c-80,4.6-117,38.8-125.3,46.9l-1.7,1.6h14.8C326.8,9.1,384.3,2,399,0.7z"/>
</svg>
